<svg width="41" height="37" viewBox="0 0 41 37" fill="none" xmlns="http://www.w3.org/2000/svg">
<path d="M17.305 4.53418H11.918L20.2433 12.9308H25.1406L17.305 4.53418Z" stroke="#181931"/>
<path d="M19.7527 25.5255H25.1396L16.8143 33.9221H11.917L19.7527 25.5255Z" stroke="#181931"/>
<path d="M39.8221 33.9223C39.8221 35.2568 38.8889 36.2211 37.8734 36.2211C36.8579 36.2211 35.9248 35.2568 35.9248 33.9223C35.9248 32.5878 36.8579 31.6234 37.8734 31.6234C38.8889 31.6234 39.8221 32.5878 39.8221 33.9223Z" stroke="#181931"/>
<path d="M39.8221 3.13468C39.8221 4.46919 38.8889 5.43354 37.8734 5.43354C36.8579 5.43354 35.9248 4.46919 35.9248 3.13468C35.9248 1.80017 36.8579 0.835815 37.8734 0.835815C38.8889 0.835815 39.8221 1.80017 39.8221 3.13468Z" stroke="#181931"/>
<rect x="0.664062" y="16.696" width="15.6507" height="3.66477" rx="1.83239" stroke="#181931"/>
</svg>
