<svg width="41" height="37" viewBox="0 0 41 37" fill="none" xmlns="http://www.w3.org/2000/svg">
<path d="M23.8659 32.5228L29.2529 32.5228L20.9276 24.1262L16.0303 24.1262L23.8659 32.5228Z" stroke="#181931"/>
<path d="M21.4173 11.5314L16.0303 11.5314L24.3556 3.13478L29.2529 3.13478L21.4173 11.5314Z" stroke="#181931"/>
<path d="M1.34786 3.13473C1.34786 1.80022 2.28098 0.835865 3.29649 0.835865C4.31199 0.835865 5.24512 1.80022 5.24512 3.13473C5.24512 4.46924 4.31199 5.43359 3.29649 5.43359C2.28098 5.43359 1.34786 4.46924 1.34786 3.13473Z" stroke="#181931"/>
<path d="M1.34786 33.9222C1.34786 32.5877 2.28098 31.6233 3.29649 31.6233C4.31199 31.6233 5.24512 32.5877 5.24512 33.9222C5.24512 35.2567 4.31199 36.2211 3.29649 36.2211C2.28098 36.2211 1.34786 35.2567 1.34786 33.9222Z" stroke="#181931"/>
<rect x="40.5059" y="20.361" width="15.6507" height="3.66477" rx="1.83239" transform="rotate(-180 40.5059 20.361)" stroke="#181931"/>
</svg>
