<svg width="46" height="40" viewBox="0 0 46 40" fill="none" xmlns="http://www.w3.org/2000/svg">
<g clip-path="url(#clip0_399_6462)">
<path d="M2.13784 14.0012C2.42153 15.133 3.39414 18.7041 4.79496 19.7531C2.64855 12.2267 11.5197 6.97007 11.5197 6.97007C4.7547 8.66568 1.51341 11.5099 2.13784 14.0012Z" fill="#BDD71E"/>
<path style="mix-blend-mode:multiply" d="M2.13784 14.0012C2.42153 15.133 3.39414 18.7041 4.79496 19.7531C2.64855 12.2267 11.5197 6.97007 11.5197 6.97007C4.7547 8.66568 1.51341 11.5099 2.13784 14.0012Z" fill="url(#paint0_linear_399_6462)"/>
<path d="M42.6317 18.9904L41.5491 16.9365L21.8536 10.6411L22.9362 12.695L42.6317 18.9904Z" fill="#BDD71E"/>
<path style="mix-blend-mode:multiply" d="M42.6317 18.9904L41.5491 16.9365L21.8536 10.6411L22.9362 12.695L42.6317 18.9904Z" fill="url(#paint1_linear_399_6462)"/>
<path d="M28.2335 33.831L27.1509 31.7771L27.542 26.7598L28.6246 28.8137L28.2335 33.831Z" fill="#BDD71E"/>
<path style="mix-blend-mode:multiply" d="M28.2335 33.831L27.1509 31.7771L27.542 26.7598L28.6246 28.8137L28.2335 33.831Z" fill="url(#paint2_linear_399_6462)"/>
<path d="M1.88622 16.2638C3.14384 23.565 4.97964 27.9233 7.39142 30.2399C10.1422 33.2085 14.0334 32.4752 16.1795 31.9395C16.4928 31.861 16.7717 31.7911 17.0034 31.733L28.6196 28.8215L28.2327 33.8467L42.6306 19.006L22.9271 12.697L25.9386 17.5245C22.4885 18.3893 18.9728 19.1652 14.1624 20.3709C9.02591 21.6583 6.37468 20.9429 4.78626 19.7551L4.76036 19.952C3.38328 19.1295 2.36621 17.8343 1.90319 16.3133L1.88622 16.2638Z" fill="#9FCF74"/>
<path style="mix-blend-mode:multiply" d="M1.88622 16.2638C3.14384 23.565 4.97964 27.9233 7.39142 30.2399C10.1422 33.2085 14.0334 32.4752 16.1795 31.9395C16.4928 31.861 16.7717 31.7911 17.0034 31.733L28.6196 28.8215L28.2327 33.8467L42.6306 19.006L22.9271 12.697L25.9386 17.5245C22.4885 18.3893 18.9728 19.1652 14.1624 20.3709C9.02591 21.6583 6.37468 20.9429 4.78626 19.7551L4.76036 19.952C3.38328 19.1295 2.36621 17.8343 1.90319 16.3133L1.88622 16.2638Z" fill="url(#paint3_linear_399_6462)"/>
<path style="mix-blend-mode:overlay" opacity="0.5" d="M1.88622 16.2638C3.14384 23.565 4.97964 27.9233 7.39142 30.2399C10.1422 33.2085 14.0334 32.4752 16.1795 31.9395C16.4928 31.861 16.7717 31.7911 17.0034 31.733L28.6196 28.8215L28.2327 33.8467L42.6306 19.006L22.9271 12.697L25.9386 17.5245C22.4885 18.3893 18.9728 19.1652 14.1624 20.3709C9.02591 21.6583 6.37468 20.9429 4.78626 19.7551L4.76036 19.952C3.38328 19.1295 2.36621 17.8343 1.90319 16.3133L1.88622 16.2638Z" fill="url(#paint4_linear_399_6462)"/>
<path style="mix-blend-mode:multiply" d="M1.88622 16.2638C3.14384 23.565 4.97964 27.9233 7.39142 30.2399C10.1422 33.2085 14.0334 32.4752 16.1795 31.9395C16.4928 31.861 16.7717 31.7911 17.0034 31.733L28.6196 28.8215L28.2327 33.8467L42.6306 19.006L22.9271 12.697L25.9386 17.5245C22.4885 18.3893 18.9728 19.1652 14.1624 20.3709C9.02591 21.6583 6.37468 20.9429 4.78626 19.7551L4.76036 19.952C3.38328 19.1295 2.36621 17.8343 1.90319 16.3133L1.88622 16.2638Z" fill="url(#paint5_linear_399_6462)"/>
<path d="M11.5199 6.97003C11.5199 6.97003 2.75887 7.26184 1.74022 12.414C0.721564 17.5662 4.40763 22.8743 13.6229 20.5646C22.8382 18.2548 25.9475 17.5225 25.9475 17.5225L24.6933 15.5117C24.6933 15.5117 19.8442 16.7271 13.7787 18.2473C7.71311 19.7676 4.05633 18.807 3.11387 15.0468C1.74456 9.58369 11.5199 6.97003 11.5199 6.97003Z" fill="#BDD71E"/>
<path style="mix-blend-mode:multiply" d="M11.5199 6.97003C11.5199 6.97003 2.75887 7.26184 1.74022 12.414C0.721564 17.5662 4.40763 22.8743 13.6229 20.5646C22.8382 18.2548 25.9475 17.5225 25.9475 17.5225L24.6933 15.5117C24.6933 15.5117 19.8442 16.7271 13.7787 18.2473C7.71311 19.7676 4.05633 18.807 3.11387 15.0468C1.74456 9.58369 11.5199 6.97003 11.5199 6.97003Z" fill="url(#paint6_linear_399_6462)"/>
<path d="M22.9362 12.695L42.6316 18.9904L42.4703 18.6836L22.9362 12.695Z" fill="#B7D752"/>
<path d="M28.2334 33.8311L28.6245 28.8137L28.498 28.8455L28.2334 33.8311Z" fill="#B7D752"/>
<path d="M25.7676 17.1958L20.0325 18.6332C12.4049 20.545 3.88453 23.3527 1.77419 15.7791C3.78166 23.7884 11.5684 21.1378 20.1378 18.9899L25.9652 17.5293L25.7676 17.1958Z" fill="#B7D752"/>
</g>
<defs>
<linearGradient id="paint0_linear_399_6462" x1="8.76669" y1="13.2089" x2="3.51001" y2="14.5264" gradientUnits="userSpaceOnUse">
<stop stop-color="white" stop-opacity="0"/>
<stop offset="1" stop-color="#6A9933"/>
</linearGradient>
<linearGradient id="paint1_linear_399_6462" x1="22.5274" y1="12.6743" x2="42.3059" y2="17.3325" gradientUnits="userSpaceOnUse">
<stop stop-color="white" stop-opacity="0"/>
<stop offset="1" stop-color="#6A9933"/>
</linearGradient>
<linearGradient id="paint2_linear_399_6462" x1="26.6611" y1="33.3895" x2="28.6609" y2="28.0879" gradientUnits="userSpaceOnUse">
<stop stop-color="white" stop-opacity="0"/>
<stop offset="1" stop-color="#6A9933"/>
</linearGradient>
<linearGradient id="paint3_linear_399_6462" x1="17.1506" y1="24.5233" x2="2.80957" y2="28.1178" gradientUnits="userSpaceOnUse">
<stop stop-color="white" stop-opacity="0"/>
<stop offset="1" stop-color="#6A9933"/>
</linearGradient>
<linearGradient id="paint4_linear_399_6462" x1="5.06243" y1="27.5531" x2="28.4085" y2="21.7015" gradientUnits="userSpaceOnUse">
<stop stop-color="white" stop-opacity="0"/>
<stop offset="0.52" stop-color="#F0EDA4"/>
<stop offset="1" stop-color="#FDFDF6" stop-opacity="0.06"/>
</linearGradient>
<linearGradient id="paint5_linear_399_6462" x1="27.885" y1="21.8328" x2="49.9802" y2="16.2947" gradientUnits="userSpaceOnUse">
<stop stop-color="white" stop-opacity="0"/>
<stop offset="1" stop-color="#6A9933"/>
</linearGradient>
<linearGradient id="paint6_linear_399_6462" x1="9.80042" y1="14.3028" x2="22.7962" y2="11.0455" gradientUnits="userSpaceOnUse">
<stop stop-color="white" stop-opacity="0"/>
<stop offset="1" stop-color="#6A9933"/>
</linearGradient>
<clipPath id="clip0_399_6462">
<rect width="30.4727" height="39.0432" fill="white" transform="translate(7.4082 39.0507) rotate(-104.071)"/>
</clipPath>
</defs>
</svg>
