<svg width="131" height="109" viewBox="0 0 131 109" fill="none" xmlns="http://www.w3.org/2000/svg">
<path fill-rule="evenodd" clip-rule="evenodd" d="M105.93 69.6027C105.353 68.6026 104.761 67.6274 104.145 66.6654L106.382 65.2336C107.018 66.23 107.63 67.2398 108.226 68.2743L105.93 69.6027ZM100.159 61.0777C98.7329 59.2666 97.2278 57.5317 95.6458 55.9026L97.5556 54.0623C99.1954 55.7653 100.757 57.5444 102.241 59.4293L100.159 61.0777ZM90.6328 51.2156C88.8871 49.7272 87.0693 48.3264 85.1928 47.0362L86.7015 44.8455C88.6407 46.1913 90.5327 47.6412 92.3527 49.1786L90.6328 51.2156ZM79.3636 43.4037C77.3612 42.2936 75.3049 41.276 73.208 40.3738L74.257 37.9433C76.4396 38.8878 78.5683 39.9249 80.6449 41.084L79.3636 43.4037ZM66.7803 37.9611C64.6004 37.2602 62.3913 36.6682 60.153 36.1849L60.7114 33.5937C63.0335 34.0897 65.3332 34.706 67.5922 35.4378L66.7803 37.9611ZM53.3804 35.0599C51.1135 34.7925 48.824 34.6454 46.5349 34.6054L46.5849 31.9557C48.9627 31.9904 51.3246 32.1569 53.687 32.4304L53.3804 35.0599ZM39.6708 34.836C37.4008 35.0149 35.1197 35.3074 32.8637 35.7234L32.3877 33.1173C34.7324 32.6961 37.1072 32.38 39.4594 32.1843L39.6708 34.836ZM26.186 37.2868C24.0016 37.9066 21.8309 38.6564 19.6902 39.5114L18.7116 37.0429C20.9393 36.1528 23.1806 35.3928 25.452 34.7381L26.186 37.2868ZM13.2883 48.9924C9.90077 50.9517 5.58459 49.7852 3.6304 46.3943C1.67621 43.0033 2.83256 38.6868 6.22005 36.7275C9.60753 34.7681 13.9286 35.9165 15.8828 39.3074C17.8369 42.6984 16.6757 47.033 13.2883 48.9924Z" fill="#B7FF00"/>
<path d="M110.89 61C121.869 61 130.78 69.9106 130.78 80.8898C130.78 91.8689 121.869 100.78 110.89 100.78C99.9106 100.78 91 91.8689 91 80.8898C91 69.9106 99.9106 61 110.89 61Z" fill="#B1DD42" fill-opacity="0.49"/>
</svg>
