<svg width="128" height="50" viewBox="0 0 128 50" fill="none" xmlns="http://www.w3.org/2000/svg">
<path fill-rule="evenodd" clip-rule="evenodd" d="M25.9751 33.6592C26.5848 34.0575 26.7704 34.8807 26.3728 35.4914C25.763 36.4474 25.1532 37.4432 24.5833 38.4389L22.29 37.1112C22.8865 36.0756 23.5096 35.0533 24.1458 34.0575C24.5435 33.4468 25.3653 33.2609 25.9751 33.6592ZM34.8563 22.8518C35.3865 23.3563 35.3865 24.2061 34.8828 24.7371C33.3054 26.3702 31.7943 28.0962 30.3627 29.9019C29.912 30.4728 29.0769 30.579 28.5069 30.1276C27.9369 29.6762 27.8309 28.8264 28.2816 28.2555C29.7662 26.3702 31.3303 24.5911 32.974 22.8916C33.4777 22.3606 34.3261 22.3473 34.8563 22.8518ZM45.6728 14.0094C46.0838 14.6068 45.938 15.4433 45.3414 15.8549C43.4724 17.156 41.6432 18.5501 39.8934 20.0371C39.3367 20.5151 38.5016 20.4354 38.0244 19.8778C37.5472 19.3202 37.6267 18.4837 38.1834 18.0057C39.9995 16.4656 41.8818 15.0052 43.8303 13.6642C44.4268 13.2526 45.2619 13.4119 45.6728 14.0094ZM58.0138 7.45058C58.3054 8.12771 58.0005 8.89777 57.3245 9.18986C55.2301 10.0927 53.1755 11.115 51.1739 12.2303C50.5376 12.5888 49.729 12.3498 49.3711 11.7125C49.0132 11.0752 49.2518 10.2653 49.8881 9.90681C51.9692 8.75172 54.1034 7.70284 56.2773 6.76018C56.9533 6.46809 57.7221 6.77346 58.0138 7.45058ZM120.766 18.736C116.855 18.736 113.7 15.5628 113.7 11.6461C113.7 7.7294 116.855 4.56949 120.766 4.56949C124.676 4.56949 127.844 7.7294 127.844 11.6461C127.844 15.5628 124.676 18.736 120.766 18.736ZM103.441 4.45C103.639 3.74632 104.368 3.33473 105.071 3.53389C107.338 4.18446 109.591 4.95452 111.818 5.84407C112.494 6.10961 112.825 6.87967 112.56 7.5568C112.295 8.23392 111.513 8.56584 110.837 8.3003C108.69 7.45058 106.529 6.72035 104.342 6.09633C103.639 5.89718 103.242 5.15367 103.441 4.45ZM71.4019 3.4144C71.5609 4.13135 71.097 4.83503 70.3812 4.99435C68.141 5.4856 65.9273 6.06978 63.7534 6.77346C63.0509 6.99917 62.3086 6.61413 62.0832 5.91046C61.8579 5.20678 62.2423 4.47655 62.9448 4.25084C65.2115 3.52061 67.5047 2.8966 69.8245 2.39207C70.5403 2.23275 71.2428 2.69744 71.4019 3.4144ZM89.6415 2.2062C89.6945 1.47596 90.3441 0.931611 91.0731 0.984719C93.4326 1.1706 95.7921 1.48924 98.1383 1.9141C98.8541 2.04687 99.3313 2.73727 99.1988 3.45423C99.0662 4.17118 98.3769 4.66243 97.6611 4.52966C95.3944 4.11807 93.1277 3.8127 90.861 3.62683C90.132 3.57372 89.5885 2.93643 89.6415 2.2062ZM85.307 2.06015C85.3202 2.79038 84.7237 3.40112 83.9946 3.4144C81.7014 3.45423 79.4215 3.60027 77.1548 3.86581C76.4257 3.94547 75.763 3.42767 75.6834 2.69744C75.6039 1.96721 76.1208 1.31664 76.8499 1.23698C79.2094 0.958165 81.5689 0.798842 83.9549 0.759011C84.6839 0.745734 85.2937 1.32992 85.307 2.06015Z" fill="#B7FF00"/>
<path d="M11.9339 26C18.524 26 23.8677 31.3437 23.8677 37.9339C23.8677 44.524 18.524 49.8677 11.9339 49.8677C5.34372 49.8677 0 44.524 0 37.9339C0 31.3437 5.34372 26 11.9339 26Z" fill="#B7FF00"/>
</svg>
