<svg xmlns="http://www.w3.org/2000/svg" width="375" height="60" viewBox="0 0 375 60" fill="none">
<path d="M134.057 22.4581C134.057 25.1698 132.752 27.7826 129.488 29.2393C133.606 30.4942 135.113 34.8644 135.113 37.0737C135.113 44.91 129.235 47.422 121.954 47.422H105.278V12.2611H121.954C128.884 12.2611 134.057 15.3763 134.057 22.4581ZM111.807 26.3763H121.954C126.122 26.3763 127.478 24.6169 127.478 22.6094C127.478 20.9953 126.173 18.2897 121.954 18.2897H111.807V26.3763ZM111.807 41.244H121.954C124.665 41.244 128.533 40.3381 128.533 37.0232C128.533 33.8596 124.665 32.2031 121.954 32.2031H111.807V41.244Z" fill="white"/>
<path d="M145.609 22.658V35.6171C145.609 39.3839 147.667 42.2469 151.585 42.2469C155.352 42.2469 157.914 39.0833 157.914 35.3164V22.658H163.991V47.4745H158.516L158.112 44.1092C155.554 46.609 153.193 47.8195 149.727 47.8195C143.799 47.8195 139.479 43.3485 139.479 35.6635V22.658H145.609Z" fill="white"/>
<path d="M175.49 12.3097V47.4161H169.411V12.3097H175.49Z" fill="white"/>
<path d="M186.941 12.3097V47.4161H180.864V12.3097H186.941Z" fill="white"/>
<path d="M223.759 43.0015C220.142 46.5666 215.471 48.2251 210.397 48.2251C197.339 48.2251 191.814 39.2346 191.764 30.0928C191.714 20.9006 197.69 11.5591 210.397 11.5591C215.168 11.5591 219.69 13.3749 223.309 16.934L218.885 21.2032C216.575 18.9415 213.459 17.8883 210.395 17.8883C201.907 17.8883 198.241 24.2155 198.289 30.0928C198.339 35.9197 201.705 41.9967 210.395 41.9967C213.459 41.9967 216.926 40.7397 219.236 38.4296L223.759 43.0015Z" fill="#bdd71e"/>
<path d="M232.644 12.2611V26.0293C234.863 23.1683 237.567 22.3128 240.38 22.3128C247.411 22.3128 250.526 27.0845 250.526 34.368V47.4159H244.399V34.4124C244.399 29.891 242.038 27.9823 238.772 27.9823C235.156 27.9823 232.644 31.0471 232.644 34.7635V47.4159H226.517V12.2611H232.644Z" fill="#bdd71e"/>
<path d="M275.334 22.658H281.211V47.4161H275.435L275.132 43.7985C273.72 46.7119 269.86 48.1182 267.098 48.1687C259.764 48.2191 254.339 43.6976 254.339 35.0098C254.339 26.4693 260.014 22.0003 267.252 22.0507C270.566 22.0507 273.73 23.6063 275.136 26.0678L275.334 22.658ZM260.466 35.0159C260.466 39.7371 263.733 42.5496 267.8 42.5496C277.445 42.5496 277.445 27.5305 267.8 27.5305C263.733 27.5305 260.466 30.2926 260.466 35.0159Z" fill="#bdd71e"/>
<path d="M292.059 22.658L292.511 25.523C294.42 22.4583 296.98 22.0063 299.492 22.0063C302.055 22.0063 304.516 23.0152 305.872 24.367L303.108 29.6914C301.853 28.6362 300.699 28.0773 298.689 28.0773C295.475 28.0773 292.511 29.7862 292.511 34.3561V47.4161H286.384V22.658H292.059Z" fill="#bdd71e"/>
<path d="M318.375 15.677V22.7104H325.212V27.9824H318.33V38.6757C318.33 41.0363 319.638 42.1924 321.546 42.1924C322.578 42.162 323.59 41.9043 324.51 41.4378L326.217 46.6614C324.609 47.3331 322.887 47.6912 321.145 47.7166C315.77 47.9184 312.253 44.8536 312.253 38.6757V27.9824H307.633V22.7104H312.253V16.3307L318.375 15.677Z" fill="#bdd71e"/>
<path d="M355.189 40.7922H336.804L333.792 47.416H326.609L342.379 12.2551H349.624L365.384 47.416H358.153L355.189 40.7922ZM345.993 19.6456L339.464 34.6122H352.522L345.993 19.6456Z" fill="white"/>
<path d="M367.892 47.4159V12.2611H374.473V47.4159H367.892Z" fill="white"/>
<path d="M77.2018 13.8366C77.2019 13.777 77.2163 13.7184 77.2438 13.6655C77.9572 12.626 77.9992 11.467 77.77 10.2596L76.7111 7.5349C76.6011 7.44421 76.4986 7.34489 76.4044 7.2379C76.2669 7.07103 76.0913 6.93964 75.8924 6.85481C75.6935 6.76997 75.4772 6.73417 75.2616 6.75042C74.6535 6.81325 74.0413 6.82621 73.4311 6.78916C72.4981 6.69231 71.5748 6.49861 70.6515 6.33396C69.4376 6.11767 68.2206 5.90459 67.0132 5.65924C65.4883 5.39449 63.9194 5.57379 62.4935 6.17577C61.3616 6.65814 60.297 7.28537 59.3265 8.04175C58.4757 8.72985 57.6621 9.46264 56.8891 10.237C56.3656 10.7666 55.8033 11.2565 55.2071 11.7027C54.3034 12.2803 53.2164 12.4991 52.1596 12.3161C51.769 12.2612 51.3816 12.1869 50.9942 12.1159C49.9624 11.9211 48.8956 12.0544 47.9434 12.4969C47.5414 12.6871 47.0925 12.7555 46.652 12.6938C44.8248 12.3419 43.301 12.9617 41.8321 13.9625C40.985 14.5957 40.0621 15.1206 39.0848 15.525C37.716 16.0125 36.2503 16.0706 34.888 15.3636C34.0879 14.9215 33.4821 14.196 33.1899 13.3298C32.6023 11.7769 33.2674 9.80765 34.7201 9.03285C35.6886 8.50986 36.7604 8.71002 37.7677 8.97797C38.7743 9.25903 39.6994 9.77584 40.4665 10.4856C40.6665 10.6654 40.9132 10.7851 41.1783 10.8308C41.4433 10.8765 41.7158 10.8464 41.9645 10.7439C42.4405 10.5585 42.9042 10.3428 43.3527 10.0982C43.1296 9.68384 42.8587 9.29703 42.5456 8.94569C42.2536 8.68712 41.8798 8.53967 41.4899 8.52923C39.8499 8.60671 38.2907 8.2064 36.712 7.88357C34.775 7.48648 33.1092 8.12246 32.2375 10.2144C31.5337 11.9061 31.5144 13.6042 32.6507 15.1312C33.0534 15.654 33.5598 16.0879 34.1381 16.4056C34.7165 16.7234 35.3542 16.9182 36.0114 16.9778C37.8548 17.2199 39.5626 16.7228 41.1961 15.9544C42.0807 15.5412 42.9233 15.0343 43.8046 14.6179C44.1691 14.5125 44.5456 14.455 44.9249 14.4468C44.793 14.727 44.6329 14.9931 44.4471 15.2409C42.9912 16.7419 41.9269 18.5778 41.3479 20.5871C40.82 22.2844 40.6875 24.08 40.9605 25.8364C41.021 26.2453 41.1544 26.64 41.3543 27.0018C41.7772 27.7701 41.4738 28.4545 41.0832 29.0485C40.6925 29.6426 40.1437 30.017 39.6982 30.54C39.4654 30.7593 39.3073 31.0461 39.2462 31.36C39.2075 33.2228 38.168 34.5884 37.0768 35.9475C36.6442 36.4866 36.1083 36.9547 35.6628 37.4745C34.7233 38.5366 35.2334 40.4704 36.5796 40.9547C36.6587 40.9847 36.7434 40.9968 36.8277 40.9901C36.912 40.9834 36.9938 40.958 37.0671 40.9159C37.5869 40.38 38.0679 39.8086 38.5231 39.3017C38.5231 39.2275 38.5586 39.3308 38.5231 39.4115C38.3584 39.9765 38.7943 40.1895 39.1688 40.2929C39.3144 40.306 39.4611 40.2834 39.5961 40.2272C39.7311 40.171 39.8503 40.0827 39.9436 39.97C40.4117 39.2727 40.7571 38.4979 41.2155 37.7941C41.6294 37.1612 42.0845 36.5562 42.5779 35.983C43.0045 35.4692 43.4743 34.9929 43.9822 34.5593C44.5181 34.117 45.1347 33.7684 45.7061 33.3616C46.2259 32.9936 46.7198 32.59 47.246 32.2285C47.929 31.7339 48.6369 31.2749 49.3671 30.8532C50.2064 30.4012 50.7101 29.6716 51.1943 28.9162C51.4849 28.461 51.359 28.2253 50.8489 28.051C49.9403 27.7224 48.9671 27.6118 48.008 27.7282C46.9135 27.8767 46.1129 28.4126 45.8611 29.5005C45.8015 29.7893 45.6708 30.0586 45.4808 30.2841C45.2908 30.5096 45.0476 30.6841 44.7732 30.7918C44.4096 30.9718 44.105 31.2518 43.8951 31.5989C43.0654 32.929 42.1905 34.1977 40.7216 34.9048C40.5824 34.972 40.4222 34.9813 40.2761 34.9306L40.7732 34.1848C41.4189 33.2163 42.3874 32.59 43.1622 31.7862C44.0177 30.9113 44.6376 29.8137 45.4027 28.8452C46.0193 28.0639 46.7295 27.3698 47.7787 27.231C48.2395 27.1425 48.7116 27.1294 49.1766 27.1923C50.2721 27.4 51.3553 27.6683 52.4211 27.9961C54.1224 28.5352 55.7947 29.1615 57.4863 29.7265C57.7768 29.7639 58.0708 29.7639 58.3612 29.7265L56.4759 27.2213C56.4077 27.1263 56.3286 27.0396 56.2402 26.963C54.3613 25.4845 55.0748 23.4345 55.12 21.5362C55.1587 21.8978 55.2104 22.2594 55.233 22.6209C55.2556 22.9825 55.233 23.3699 55.2523 23.7444C55.2512 24.5875 55.559 25.4018 56.1175 26.0333C57.7543 27.9703 59.5848 29.804 60.2885 32.3092C60.7815 33.9427 60.9439 35.6581 60.7663 37.3551C60.7047 37.7425 60.6766 38.1346 60.6824 38.5269C60.7534 39.8764 61.7413 40.6576 63.0875 40.464C63.3005 40.4197 63.5162 40.3895 63.7332 40.3736C64.4757 40.3736 64.6274 40.2638 64.579 39.5439C64.5403 38.9628 64.4208 38.3881 64.3369 37.8103C64.5822 38.2525 64.947 38.2203 65.3054 38.0201C66.3283 37.4577 67.1915 36.6446 67.8138 35.657C68.6641 34.2184 69.6663 32.8752 70.8032 31.6506C71.0368 31.3705 71.1708 31.0207 71.1842 30.6563C71.21 30.0526 71.0421 29.4392 71.0809 28.8387C71.1413 27.9406 71.2621 27.0475 71.4424 26.1656C71.6423 25.3772 71.6245 24.5493 71.3908 23.7702C70.7451 24.3933 70.1673 24.913 69.6346 25.4748C68.7694 26.3819 67.9429 27.3246 67.0874 28.2415C66.7936 28.5643 66.7646 28.7322 67.2133 28.9162C67.571 29.0771 67.8588 29.3614 68.0242 29.7171C68.1895 30.0727 68.2214 30.476 68.114 30.8532C67.6556 32.18 66.9647 33.3745 65.5314 33.8878C64.5629 34.2397 63.9462 34.8079 63.9527 35.8991C63.946 35.9763 63.9229 36.0511 63.8849 36.1186C63.8849 36.1477 63.8203 36.1541 63.7138 36.209C63.436 35.6391 63.1965 35.0514 62.9971 34.4496C62.7292 33.452 62.5355 32.4318 62.3514 31.4117C62.322 31.0986 62.3639 30.7829 62.4741 30.4884C62.8196 29.3907 62.4741 28.4029 62.0512 27.4182C61.9815 27.2218 61.9286 27.0199 61.893 26.8145L62.1319 26.7338C62.4903 27.6216 62.8777 28.503 63.2037 29.4037C63.3781 29.8879 63.5007 29.9331 64.1496 29.7007C65.4406 29.2271 66.5726 28.4005 67.4167 27.3149C68.34 26.1721 69.3699 25.1197 70.3803 24.0543C71.0175 23.383 71.4362 22.5343 71.5813 21.6201C71.5913 21.5226 71.6064 21.4256 71.6265 21.3296C71.8589 20.3805 71.662 20.1157 70.7161 19.7542C70.243 19.5255 69.7987 19.2416 69.3925 18.9083C69.2924 18.8341 69.2536 18.6727 69.1213 18.437C70.1253 19.002 71.026 19.4539 71.8524 20.006C72.1565 20.2633 72.3712 20.6102 72.4658 20.9971C72.7467 21.9656 74.3835 22.8372 75.4746 22.6112C75.8919 22.5224 76.3168 22.4737 76.7434 22.466C77.4117 22.4466 77.586 22.2238 77.5375 21.5427C77.5182 21.2747 77.7377 20.9971 77.7571 20.7194C77.7894 20.2481 77.9023 19.6961 77.7151 19.3087C76.8725 17.5331 76.9758 15.6994 77.2018 13.8366ZM38.8072 38.7303L38.6328 38.6658C38.8039 37.5488 39.0816 36.4705 39.8209 35.5569L39.9726 35.6118L38.8072 38.7303ZM52.0853 14.2563C47.9111 13.6106 46.4519 14.8019 46.4519 14.8019C47.8433 13.3459 50.6294 13.5945 50.6294 13.5945C55.756 14.2886 57.7317 11.2765 57.7317 11.2765C57.5089 14.7018 52.0853 14.2563 52.0853 14.2563ZM66.2707 11.8512L65.7251 11.0118L66.9551 10.689C66.6677 11.1829 66.5063 11.4573 66.2707 11.8512ZM70.7161 13.2652C71.3843 13.078 71.7427 13.3136 71.7395 13.9884C71.2714 13.8657 70.8097 13.8366 70.7161 13.2652ZM75.6554 21.5072C75.4136 21.4489 75.1762 21.3734 74.9452 21.2812C74.962 21.1305 74.9956 20.9821 75.0453 20.8389L75.7813 21.1617L75.6554 21.5072Z" fill="white"/>
<path d="M90.6194 28.6223L73.2639 28.9419L75.6948 32.9741L49.6486 50.1392L44.6802 43.505L43.3824 41.7746L41.7456 42.898L23.3732 55.5144L18.592 49.2256L18.1045 48.5864L17.4847 48.977L0 59.9533L17.6074 50.8042L22.1141 57.8549L22.7081 58.7847L23.7509 58.1874L42.1718 47.634L46.8884 55.1334L48.1345 57.1189L50.3782 55.8889L79.7884 39.773L82.2193 43.8116L90.6194 28.6223Z" fill="white"/>
<path d="M17.3289 44.5931C17.2722 44.4791 17.2567 44.349 17.2849 44.2249C17.3132 44.1007 17.3834 43.9902 17.4838 43.9119L17.5258 43.8699V43.8538C18.2619 43.1435 18.9689 42.4043 19.7114 41.6973C19.8882 41.533 20.1163 41.4349 20.3571 41.4196C21.5871 41.3938 22.8235 41.4196 24.0535 41.4035C24.4151 41.4035 24.5249 41.5391 24.5184 41.8845C24.5184 42.8853 24.4926 43.8893 24.5184 44.8901C24.5553 45.815 24.8271 46.7154 25.3084 47.5061C25.7896 48.2969 26.4643 48.952 27.269 49.4097L30.5522 49.3L32.9121 47.5987H30.1648C28.7669 47.5987 27.7015 46.8981 27.2593 45.6616C27.16 45.3818 27.1098 45.0869 27.1107 44.79C27.1107 40.4662 27.1107 36.1424 27.1107 31.8185C27.1107 30.7241 27.1947 29.6297 27.1882 28.5353C27.1882 26.3949 27.1721 19.8543 27.0946 17.7172C27.0816 17.3106 27.1521 16.9057 27.3018 16.5275C27.4515 16.1493 27.6773 15.8058 27.965 15.5184C28.2528 15.2309 28.5965 15.0055 28.9749 14.8562C29.3532 14.7069 29.7582 14.6368 30.1648 14.6502H30.9783C30.7489 13.8306 30.6551 12.9789 30.7007 12.1289H29.4674C29.3286 12.1289 29.1866 12.158 29.0478 12.1806C27.7714 12.3949 26.6134 13.0576 25.782 14.0494C24.9506 15.0412 24.5002 16.2971 24.5119 17.5913C24.5119 18.5146 24.5119 23.8349 24.5119 24.7582C24.5119 25.1068 24.4022 25.236 24.0438 25.2327C22.8106 25.2327 21.5774 25.2327 20.3442 25.2327C20.1466 25.231 19.9558 25.1602 19.805 25.0326C18.9958 24.2513 18.2005 23.4561 17.4193 22.6468C17.3713 22.5756 17.338 22.4955 17.3214 22.4112C17.3048 22.327 17.3051 22.2402 17.3224 22.1561C17.4487 21.6068 17.5425 21.0506 17.6033 20.4903C17.6453 17.5622 14.375 15.4831 11.6147 16.9617C10.681 17.4568 9.97364 18.2923 9.63944 19.2949C9.30523 20.2975 9.36981 21.3903 9.81977 22.3466C10.2554 23.284 11.0334 24.0191 11.9939 24.4009C12.9545 24.7827 14.0248 24.7824 14.9851 24.3998C15.0983 24.343 15.2276 24.3271 15.3512 24.3548C15.4747 24.3824 15.5849 24.4519 15.6631 24.5515C16.6057 25.5201 17.5742 26.4337 18.504 27.4022C18.6262 27.5348 18.7767 27.6383 18.9444 27.7048C19.1121 27.7713 19.2926 27.7992 19.4725 27.7863C21.0157 27.7863 22.562 27.7863 24.1052 27.7863C24.3344 27.7863 24.4958 27.8219 24.4926 28.1092C24.4926 29.2843 24.4926 30.4594 24.4926 31.6345C24.4926 31.9315 24.3893 32.0607 24.0955 32.051C23.8017 32.0413 23.5531 32.051 23.2819 32.051C19.5952 32.051 15.9095 32.0564 12.2249 32.0671H12.1571C12.0098 32.0716 11.8649 32.0298 11.7427 31.9475C11.6205 31.8653 11.5272 31.7468 11.4759 31.6087C11.2495 31.1272 10.939 30.6899 10.5591 30.3174C9.29034 29.1778 7.81176 28.8775 6.22018 29.5426C5.48984 29.8194 4.85922 30.3087 4.40978 30.9475C3.96034 31.5863 3.71271 32.3451 3.69885 33.126C3.65446 34.0694 3.93838 34.9989 4.50227 35.7565C5.06617 36.514 5.87517 37.0527 6.79159 37.2809C7.72618 37.5195 8.7153 37.4161 9.58029 36.9892C10.4453 36.5623 11.1291 35.8402 11.5082 34.9533C11.5483 34.8349 11.6272 34.7336 11.7321 34.6656C11.8369 34.5977 11.9617 34.5671 12.0861 34.5788H12.1474C16.0989 34.5788 20.0493 34.5788 23.9986 34.5788C24.3634 34.5788 24.499 34.6853 24.4926 35.063C24.4732 36.1477 24.4732 37.2292 24.4926 38.314C24.4926 38.7078 24.3602 38.8273 23.976 38.824C22.4587 38.824 20.9414 38.824 19.4208 38.824C19.2597 38.8174 19.0992 38.846 18.9503 38.9079C18.8014 38.9698 18.6678 39.0635 18.5589 39.1824C17.6323 40.1509 16.68 41.0936 15.7535 42.0621C15.7054 42.11 15.6548 42.1553 15.6017 42.1976C15.5039 42.2527 15.3945 42.284 15.2823 42.2891C15.1702 42.2941 15.0584 42.2728 14.9561 42.2267C14.4612 42.0435 13.9374 41.9506 13.4097 41.9523C11.7051 42.0298 10.4364 42.8465 9.76489 44.4349C9.43654 45.144 9.3284 45.9352 9.45443 46.7064C9.58047 47.4776 9.93489 48.1932 10.4719 48.7609C11.1007 49.4653 11.9539 49.9303 12.8868 50.0769C13.8196 50.2234 14.7743 50.0424 15.5888 49.5647C16.4258 49.0813 17.0616 48.3138 17.3809 47.4016C17.7002 46.4894 17.6817 45.4929 17.3289 44.5931ZM13.5033 22.1368C13.0928 22.1283 12.7017 21.96 12.4135 21.6675C12.1253 21.3751 11.9626 20.9816 11.9602 20.571C11.9602 20.1617 12.1227 19.7692 12.4121 19.4798C12.7015 19.1904 13.094 19.0279 13.5033 19.0279C13.9126 19.0279 14.3051 19.1904 14.5945 19.4798C14.8839 19.7692 15.0464 20.1617 15.0464 20.571C15.0482 20.9829 14.8869 21.3787 14.5977 21.6721C14.3086 21.9654 13.9152 22.1325 13.5033 22.1368ZM9.34845 33.3488C9.33744 33.7672 9.16169 34.1644 8.85943 34.454C8.55716 34.7436 8.15281 34.9021 7.73428 34.8951C7.63424 34.892 7.53475 34.879 7.43726 34.8564C7.09047 34.7676 6.782 34.5684 6.55837 34.2888C6.33474 34.0093 6.20811 33.6646 6.19758 33.3068C6.19758 33.1982 6.20949 33.09 6.23309 32.984C6.28081 32.7809 6.36741 32.5891 6.48812 32.419C6.54893 32.3357 6.617 32.2579 6.69151 32.1866C6.91835 31.9671 7.20458 31.8189 7.51475 31.7604C7.62111 31.7401 7.72936 31.7315 7.83759 31.7346C7.93999 31.7372 8.04177 31.7513 8.14105 31.7766C8.48256 31.8662 8.78524 32.0654 9.00274 32.3435C9.22023 32.6217 9.34054 32.9634 9.34521 33.3165C9.34521 33.3165 9.34521 33.3326 9.34521 33.3423L9.34845 33.3488ZM14.5977 47.179C14.289 47.4484 13.8903 47.592 13.4807 47.5812C13.0711 47.5704 12.6804 47.4061 12.3863 47.1209C12.1007 46.8091 11.9488 46.3977 11.9633 45.9751C11.9777 45.5525 12.1575 45.1525 12.4638 44.861C12.7716 44.578 13.1792 44.4289 13.5969 44.4465C14.0147 44.464 14.4084 44.6468 14.6913 44.9546C14.9743 45.2624 15.1234 45.6701 15.1059 46.0878C15.0883 46.5056 14.9055 46.8992 14.5977 47.1822V47.179Z" fill="#bdd71e"/>
<path d="M68.2601 11.9706L67.5499 11.9254C66.378 11.848 65.1706 11.7673 63.9987 11.5832C62.9915 11.4283 62.3652 10.6922 62.2296 9.51388C62.1319 8.39821 62.3162 7.27589 62.7655 6.25003C63.0431 5.54625 63.2594 4.80051 63.4692 4.08382C63.5629 3.76098 63.6533 3.43815 63.7533 3.11531L63.8534 2.79248L64.0407 3.07012C64.252 3.38771 64.3967 3.74485 64.466 4.11995C64.5354 4.49505 64.528 4.88032 64.4442 5.25247C64.4055 5.44617 64.3603 5.63987 64.3119 5.83035C64.2043 6.2175 64.1212 6.61107 64.0633 7.00869C64.0188 7.29171 64.0326 7.5808 64.1036 7.85833C64.1747 8.13586 64.3016 8.396 64.4765 8.62286C64.6729 8.84563 64.9122 9.0265 65.1801 9.15464C65.4481 9.28277 65.7391 9.35555 66.0358 9.3686C66.2359 9.3686 66.4458 9.39443 66.6588 9.39443C67.0911 9.39372 67.5227 9.36135 67.9502 9.29758C68.1838 9.25565 68.42 9.22976 68.6572 9.2201C69.3028 9.2201 69.3028 9.67852 69.3028 10.5889V10.731L69.164 10.7503C68.251 10.8999 67.3287 10.9862 66.4038 11.0086C65.6025 11.02 64.805 10.8978 64.0439 10.647C63.6686 10.4782 63.3429 10.2158 63.098 9.88514L63.0657 9.84963C63.1625 10.4501 63.6113 10.8375 64.357 10.9537C65.1899 11.0829 66.0551 11.1313 66.8881 11.1765L67.679 11.2249H67.9179C68.2658 11.2195 68.6117 11.2786 68.938 11.3992L69.2899 11.538L68.9445 11.6962C68.8823 11.7247 68.8219 11.7571 68.7637 11.7931C68.625 11.8928 68.4624 11.9541 68.2924 11.9706H68.2601Z" fill="white"/>
<path d="M63.885 3.17671C64.0833 3.47693 64.219 3.8141 64.2839 4.16802C64.3488 4.52194 64.3416 4.88533 64.2627 5.23639C64.1432 5.82072 63.9689 6.39859 63.9011 6.98615C63.7461 8.38725 64.5758 9.39449 66.0189 9.52362C66.232 9.52362 66.445 9.54945 66.6646 9.54945C67.0969 9.54784 67.5285 9.51439 67.9559 9.44937C68.1802 9.41092 68.4066 9.38612 68.6338 9.37512C69.0923 9.37512 69.1084 9.62693 69.1116 10.5825C68.2063 10.7325 67.2915 10.8188 66.374 10.8408C65.5894 10.852 64.8083 10.7331 64.0625 10.4889C63.5718 10.321 63.2135 9.75283 62.8584 9.42677C62.7906 10.2758 63.2457 10.9409 64.3046 11.1055C65.3635 11.2702 66.529 11.3057 67.6428 11.3799C68.0522 11.3644 68.4611 11.4224 68.8501 11.551C68.6564 11.6382 68.4531 11.8125 68.2658 11.8125H68.2594C66.8389 11.7157 65.412 11.6479 64.0076 11.4283C62.9972 11.2702 62.4871 10.5018 62.3741 9.49134C62.2806 8.40225 62.4604 7.30704 62.8971 6.30497C63.3006 5.28158 63.5686 4.20655 63.8914 3.17348M63.7817 2.43742L63.5815 3.08309C63.4846 3.40592 63.391 3.72875 63.2974 4.05159C63.0876 4.76505 62.8713 5.50434 62.5969 6.20489C62.1395 7.25469 61.952 8.4022 62.0513 9.54299C62.1933 10.7859 62.8874 11.5898 63.9592 11.7576C65.1408 11.9416 66.3546 12.0224 67.5265 12.0805L68.2368 12.1289H68.282C68.4816 12.113 68.6733 12.0439 68.8372 11.9287C68.8894 11.8958 68.9433 11.8656 68.9986 11.8383L69.6895 11.5155L68.9857 11.2346C68.6435 11.1096 68.2815 11.0473 67.9172 11.0506C68.3497 11.0022 68.7727 10.9441 69.1697 10.886L69.4474 10.8472V10.5664C69.4474 9.64307 69.4474 9.03614 68.6468 9.03614C68.4033 9.04694 68.1607 9.07281 67.9204 9.11362C67.5047 9.17673 67.085 9.2091 66.6646 9.21047C66.4547 9.21047 66.2513 9.21047 66.0544 9.18465C65.7789 9.17393 65.5083 9.10747 65.2592 8.98928C65.0101 8.87109 64.7875 8.70363 64.6049 8.49701C64.4432 8.28803 64.3261 8.0482 64.2606 7.79226C64.1951 7.53632 64.1826 7.26968 64.2239 7.00875C64.2751 6.62579 64.3495 6.24629 64.4467 5.87237C64.4919 5.67867 64.5403 5.48497 64.579 5.28804C64.6667 4.89474 64.6739 4.48776 64.6001 4.09162C64.5263 3.69548 64.3731 3.31837 64.1497 2.98301L63.7752 2.42773L63.7817 2.43742Z" fill="white"/>
<path d="M76.5947 10.0014L76.9176 9.88846C77.0661 9.8368 77.221 9.78515 77.3792 9.74641C77.6472 9.68507 77.9151 9.63342 78.1831 9.58177C78.6994 9.49193 79.2095 9.369 79.7101 9.21374C80.0357 9.12268 80.3277 8.93855 80.5502 8.68393C80.7727 8.42931 80.9161 8.11527 80.9627 7.78035C80.1427 9.23956 78.6738 9.26539 77.2436 9.28799H76.9886L76.6044 7.62862L76.7852 7.60925L77.1855 7.57051C77.4567 7.54468 77.7117 7.51886 77.9603 7.48335C78.2232 7.46248 78.4791 7.38815 78.7122 7.26491C78.9454 7.14167 79.1509 6.97213 79.3162 6.76665C79.4554 6.53709 79.5459 6.28133 79.582 6.0153C79.6181 5.74926 79.5991 5.47864 79.5261 5.22028C79.4841 5.00721 79.426 4.79091 79.3679 4.57461C79.2536 4.20571 79.1779 3.82597 79.1419 3.44147C79.1296 2.96109 79.1577 2.48054 79.2258 2.00486C79.2516 1.76919 79.2807 1.52383 79.3033 1.25911L79.355 0.632812L79.61 1.20746L80.1362 2.37612C80.5171 3.22517 80.8787 4.0258 81.208 4.81674C81.4475 5.35169 81.6189 5.9146 81.7181 6.49225C81.9925 8.48736 81.0563 9.83358 79.0806 10.2855C78.5748 10.3887 78.0641 10.4652 77.5503 10.5148L76.8595 10.5955L76.7109 10.6148L76.5947 10.0014Z" fill="white"/>
<path d="M79.478 1.28488C80.0849 2.65047 80.6014 3.76101 81.0728 4.89093C81.3059 5.41374 81.4729 5.96357 81.5699 6.5277C81.8347 8.43565 80.9437 9.71084 79.0583 10.1402C78.3352 10.3049 77.5894 10.35 76.8533 10.463C76.8275 10.35 76.8049 10.2338 76.7823 10.1208C76.9986 10.053 77.2085 9.96911 77.428 9.91745C78.2125 9.73667 79.0196 9.63336 79.775 9.37832C80.8113 9.02966 81.2568 8.22903 81.1858 6.84085C80.5401 9.13942 78.8355 9.10068 77.1277 9.14265C77.0244 8.68746 76.9276 8.271 76.8049 7.78998C77.2278 7.74478 77.612 7.71895 77.9897 7.66084C79.3618 7.451 79.9622 6.58904 79.6878 5.21054C79.5242 4.63537 79.4001 4.04967 79.3166 3.45755C79.322 2.73483 79.3759 2.01329 79.478 1.29779M79.2617 0.00645682L79.1551 1.25905C79.1326 1.51732 79.1067 1.76267 79.0777 1.99834C79.0088 2.48261 78.9807 2.97181 78.9937 3.46078C79.0291 3.85754 79.107 4.24935 79.2262 4.62944C79.2843 4.84573 79.3424 5.05235 79.3811 5.25896C79.4491 5.49628 79.4679 5.74499 79.4362 5.98982C79.4046 6.23465 79.3232 6.47042 79.1971 6.68266C79.0437 6.87066 78.8535 7.02524 78.638 7.13684C78.4226 7.24845 78.1866 7.31471 77.9445 7.33155C77.6959 7.37029 77.4409 7.39289 77.1729 7.41872L76.7759 7.45746L76.4143 7.4962L76.495 7.85132L76.5822 8.22258L76.8081 9.19108L76.8662 9.44612H77.2537C77.5571 9.44612 77.867 9.44611 78.1802 9.41706H78.1576C77.8929 9.46871 77.6185 9.52037 77.3505 9.58494C77.1881 9.62219 77.0284 9.67073 76.8727 9.73021L76.6758 9.79478L76.4014 9.88517L76.4595 10.1693L76.495 10.3404L76.5305 10.5082L76.5918 10.802L76.8888 10.7633C77.1181 10.731 77.3473 10.7052 77.5733 10.6793C78.0938 10.6328 78.6112 10.5562 79.1229 10.4501C81.1632 9.98525 82.1672 8.53572 81.8831 6.47604C81.7835 5.88484 81.6088 5.30877 81.3633 4.7618C81.0405 3.96763 80.6725 3.167 80.2915 2.32117L79.7653 1.14929L79.2552 0L79.2617 0.00645682Z" fill="white"/>
</svg>